<svg fill="none" height="20" viewBox="0 0 20 20" width="20" xmlns="http://www.w3.org/2000/svg">
    <g id="Iconly">
        <g id="Heart">
            <path clip-rule="evenodd"
                d="M13.2082 2.08392C13.734 2.08392 14.259 2.15808 14.7582 2.32558C17.834 3.32558 18.9423 6.70058 18.0165 9.65058C17.4915 11.1581 16.6332 12.5339 15.509 13.6581C13.8998 15.2164 12.134 16.5997 10.2332 17.7914L10.0248 17.9172L9.80817 17.7831C7.90067 16.5997 6.12484 15.2164 4.50067 13.6497C3.384 12.5256 2.52484 11.1581 1.9915 9.65058C1.04984 6.70058 2.15817 3.32558 5.26734 2.30808C5.509 2.22475 5.75817 2.16642 6.00817 2.13392H6.10817C6.34234 2.09975 6.57484 2.08392 6.80817 2.08392H6.89984C7.42484 2.09975 7.93317 2.19142 8.42567 2.35892H8.47484C8.50817 2.37475 8.53317 2.39225 8.54984 2.40808C8.734 2.46725 8.90817 2.53392 9.07484 2.62558L9.3915 2.76725C9.46802 2.80806 9.55391 2.87041 9.62813 2.92431C9.67517 2.95845 9.71752 2.9892 9.74984 3.00892C9.76344 3.01694 9.77726 3.02501 9.7912 3.03314C9.86265 3.07485 9.93708 3.1183 9.99984 3.16642C10.9257 2.45892 12.0498 2.07558 13.2082 2.08392ZM15.4248 8.08392C15.7665 8.07475 16.0582 7.80058 16.0832 7.44975V7.35058C16.1082 6.18308 15.4007 5.12558 14.3248 4.71725C13.9832 4.59975 13.6082 4.78392 13.4832 5.13391C13.3665 5.48392 13.5498 5.86725 13.8998 5.99142C14.434 6.19141 14.7915 6.71725 14.7915 7.29975V7.32558C14.7757 7.51642 14.8332 7.70058 14.9498 7.84225C15.0665 7.98392 15.2415 8.06642 15.4248 8.08392Z"
                fill="#4C4DDC" fill-rule="evenodd" id="Heart_2" />
        </g>
    </g>
</svg>
